<svg width="81" height="51" viewBox="0 0 81 51" fill="none" xmlns="http://www.w3.org/2000/svg">
<path d="M16.3446 27.299C1.18189 57.6279 7.91748 25.6495 34.2572 1C-12.4189 44.3865 -1.58493 26.3755 16.3446 27.299ZM16.3446 27.299C36.0943 -5.73932 38.0895 -7.73362 36.2144 22.889C35.7447 30.5591 36.2144 30.9028 36.2144 30.9028M16.3446 27.299C21.2198 21.1012 29.9469 39.8836 36.2144 30.9028M16.3446 27.299C-4.54175 14.4706 1.55352 9.83928 36.2144 30.9028M27.9439 8.65186C27.9404 71.5103 35.9774 28.3425 36.2144 30.9028" stroke="#4B4E53" stroke-opacity="0.6"/>
<path d="M16.3446 27.299C1.18189 57.6279 7.91748 25.6495 34.2572 1C-12.4189 44.3865 -1.58493 26.3755 16.3446 27.299ZM16.3446 27.299C36.0943 -5.73932 38.0895 -7.73362 36.2144 22.889C35.7447 30.5591 36.2144 30.9028 36.2144 30.9028M16.3446 27.299C21.2198 21.1012 29.9469 39.8836 36.2144 30.9028M16.3446 27.299C-4.54175 14.4706 1.55352 9.83928 36.2144 30.9028M27.9439 8.65186C27.9404 71.5103 35.9774 28.3425 36.2144 30.9028" stroke="#329AFF" stroke-opacity="0.8"/>
<path d="M39.841 25.6514C39.941 25.6514 40.0476 25.6581 40.161 25.6714C40.281 25.6781 40.3843 25.6914 40.471 25.7114L40.361 26.5214C40.2743 26.5014 40.1776 26.4848 40.071 26.4714C39.971 26.4581 39.8743 26.4514 39.781 26.4514C39.5743 26.4514 39.3776 26.4948 39.191 26.5814C39.0043 26.6681 38.8376 26.7914 38.691 26.9514C38.5443 27.1048 38.4276 27.2914 38.341 27.5114C38.261 27.7314 38.221 27.9781 38.221 28.2514V31.1114H37.341V25.7514H38.061L38.161 26.7314H38.201C38.3143 26.5314 38.451 26.3514 38.611 26.1914C38.771 26.0248 38.9543 25.8948 39.161 25.8014C39.3676 25.7014 39.5943 25.6514 39.841 25.6514ZM43.2618 30.4914C43.3952 30.4914 43.5318 30.4814 43.6718 30.4614C43.8118 30.4348 43.9252 30.4081 44.0118 30.3814V31.0514C43.9185 31.0981 43.7852 31.1348 43.6118 31.1614C43.4385 31.1948 43.2718 31.2114 43.1118 31.2114C42.8318 31.2114 42.5718 31.1648 42.3318 31.0714C42.0985 30.9714 41.9085 30.8014 41.7618 30.5614C41.6152 30.3214 41.5418 29.9848 41.5418 29.5514V26.4314H40.7818V26.0114L41.5518 25.6614L41.9018 24.5214H42.4218V25.7514H43.9718V26.4314H42.4218V29.5314C42.4218 29.8581 42.4985 30.1014 42.6518 30.2614C42.8118 30.4148 43.0152 30.4914 43.2618 30.4914ZM45.9651 25.7514V31.1114H45.0851V25.7514H45.9651ZM45.5351 23.7414C45.6684 23.7414 45.7851 23.7881 45.8851 23.8814C45.9918 23.9681 46.0451 24.1081 46.0451 24.3014C46.0451 24.4881 45.9918 24.6281 45.8851 24.7214C45.7851 24.8148 45.6684 24.8614 45.5351 24.8614C45.3884 24.8614 45.2651 24.8148 45.1651 24.7214C45.0651 24.6281 45.0151 24.4881 45.0151 24.3014C45.0151 24.1081 45.0651 23.9681 45.1651 23.8814C45.2651 23.7881 45.3884 23.7414 45.5351 23.7414ZM51.8332 29.2014C51.8332 29.6281 51.7299 29.9914 51.5232 30.2914C51.3166 30.5848 51.0199 30.8114 50.6332 30.9714C50.2532 31.1314 49.8032 31.2114 49.2832 31.2114C49.0166 31.2114 48.7599 31.1981 48.5132 31.1714C48.2732 31.1448 48.0532 31.1081 47.8532 31.0614C47.6532 31.0081 47.4766 30.9448 47.3232 30.8714V30.0114C47.5632 30.1181 47.8599 30.2148 48.2132 30.3014C48.5732 30.3881 48.9432 30.4314 49.3232 30.4314C49.6766 30.4314 49.9732 30.3848 50.2132 30.2914C50.4532 30.1981 50.6332 30.0648 50.7532 29.8914C50.8732 29.7181 50.9332 29.5148 50.9332 29.2814C50.9332 29.0481 50.8832 28.8514 50.7832 28.6914C50.6832 28.5314 50.5099 28.3848 50.2632 28.2514C50.0232 28.1114 49.6866 27.9648 49.2532 27.8114C48.9466 27.6981 48.6766 27.5781 48.4432 27.4514C48.2166 27.3181 48.0266 27.1681 47.8732 27.0014C47.7199 26.8348 47.6032 26.6448 47.5232 26.4314C47.4499 26.2181 47.4132 25.9714 47.4132 25.6914C47.4132 25.3114 47.5099 24.9881 47.7032 24.7214C47.8966 24.4481 48.1632 24.2381 48.5032 24.0914C48.8499 23.9448 49.2466 23.8714 49.6932 23.8714C50.0866 23.8714 50.4466 23.9081 50.7732 23.9814C51.0999 24.0548 51.3966 24.1514 51.6632 24.2714L51.3832 25.0414C51.1366 24.9348 50.8666 24.8448 50.5732 24.7714C50.2866 24.6981 49.9866 24.6614 49.6732 24.6614C49.3732 24.6614 49.1232 24.7048 48.9232 24.7914C48.7232 24.8781 48.5732 25.0014 48.4732 25.1614C48.3732 25.3148 48.3232 25.4948 48.3232 25.7014C48.3232 25.9414 48.3732 26.1414 48.4732 26.3014C48.5732 26.4614 48.7366 26.6048 48.9632 26.7314C49.1899 26.8581 49.4966 26.9948 49.8832 27.1414C50.3032 27.2948 50.6566 27.4614 50.9432 27.6414C51.2366 27.8148 51.4566 28.0248 51.6032 28.2714C51.7566 28.5181 51.8332 28.8281 51.8332 29.2014ZM54.0315 25.7514V31.1114H53.1515V25.7514H54.0315ZM53.6015 23.7414C53.7348 23.7414 53.8515 23.7881 53.9515 23.8814C54.0582 23.9681 54.1115 24.1081 54.1115 24.3014C54.1115 24.4881 54.0582 24.6281 53.9515 24.7214C53.8515 24.8148 53.7348 24.8614 53.6015 24.8614C53.4548 24.8614 53.3315 24.8148 53.2315 24.7214C53.1315 24.6281 53.0815 24.4881 53.0815 24.3014C53.0815 24.1081 53.1315 23.9681 53.2315 23.8814C53.3315 23.7881 53.4548 23.7414 53.6015 23.7414ZM57.6296 25.6514C57.983 25.6514 58.2996 25.7181 58.5796 25.8514C58.8663 25.9848 59.1096 26.1881 59.3096 26.4614H59.3596L59.4796 25.7514H60.1796V31.2014C60.1796 31.7081 60.093 32.1314 59.9196 32.4714C59.7463 32.8181 59.483 33.0781 59.1296 33.2514C58.7763 33.4248 58.3263 33.5114 57.7796 33.5114C57.393 33.5114 57.0363 33.4814 56.7096 33.4214C56.3896 33.3681 56.103 33.2848 55.8496 33.1714V32.3614C56.023 32.4481 56.213 32.5214 56.4196 32.5814C56.6263 32.6481 56.8496 32.6981 57.0896 32.7314C57.3296 32.7648 57.5763 32.7814 57.8296 32.7814C58.2896 32.7814 58.6496 32.6448 58.9096 32.3714C59.1763 32.1048 59.3096 31.7381 59.3096 31.2714V31.0614C59.3096 30.9814 59.313 30.8681 59.3196 30.7214C59.3263 30.5681 59.333 30.4614 59.3396 30.4014H59.2996C59.113 30.6748 58.8796 30.8781 58.5996 31.0114C58.3263 31.1448 58.0063 31.2114 57.6396 31.2114C56.9463 31.2114 56.403 30.9681 56.0096 30.4814C55.623 29.9948 55.4296 29.3148 55.4296 28.4414C55.4296 27.8681 55.5163 27.3748 55.6896 26.9614C55.8696 26.5414 56.123 26.2181 56.4496 25.9914C56.7763 25.7648 57.1696 25.6514 57.6296 25.6514ZM57.7496 26.3914C57.4496 26.3914 57.193 26.4714 56.9796 26.6314C56.773 26.7914 56.613 27.0248 56.4996 27.3314C56.393 27.6381 56.3396 28.0114 56.3396 28.4514C56.3396 29.1114 56.4596 29.6181 56.6996 29.9714C56.9463 30.3181 57.303 30.4914 57.7696 30.4914C58.043 30.4914 58.2763 30.4581 58.4696 30.3914C58.663 30.3181 58.823 30.2081 58.9496 30.0614C59.0763 29.9081 59.1696 29.7148 59.2296 29.4814C59.2896 29.2481 59.3196 28.9714 59.3196 28.6514V28.4414C59.3196 27.9548 59.263 27.5614 59.1496 27.2614C59.043 26.9614 58.873 26.7414 58.6396 26.6014C58.4063 26.4614 58.1096 26.3914 57.7496 26.3914ZM64.462 25.6514C65.102 25.6514 65.5853 25.8081 65.912 26.1214C66.2386 26.4281 66.402 26.9281 66.402 27.6214V31.1114H65.532V27.6814C65.532 27.2481 65.4353 26.9248 65.242 26.7114C65.0486 26.4981 64.7453 26.3914 64.332 26.3914C63.7386 26.3914 63.3286 26.5581 63.102 26.8914C62.8753 27.2248 62.762 27.7048 62.762 28.3314V31.1114H61.882V25.7514H62.592L62.722 26.4814H62.772C62.892 26.2948 63.0386 26.1414 63.212 26.0214C63.392 25.8948 63.5886 25.8014 63.802 25.7414C64.0153 25.6814 64.2353 25.6514 64.462 25.6514Z" fill="#FFFCFC"/>
</svg>
