<svg xmlns="http://www.w3.org/2000/svg" version="1.1" xmlns:xlink="http://www.w3.org/1999/xlink" width="38" height="44"><svg width="38" height="44" viewBox="0 0 38 44" fill="none" xmlns="http://www.w3.org/2000/svg">
<path d="M16.3446 27.299C1.18189 57.6279 7.91748 25.6495 34.2572 1C-12.4189 44.3865 -1.58493 26.3755 16.3446 27.299ZM16.3446 27.299C36.0943 -5.73932 38.0895 -7.73362 36.2144 22.889C35.7447 30.5591 36.2144 30.9028 36.2144 30.9028M16.3446 27.299C21.2198 21.1012 29.9469 39.8836 36.2144 30.9028M16.3446 27.299C-4.54175 14.4706 1.55352 9.83928 36.2144 30.9028M27.9439 8.65186C27.9404 71.5103 35.9774 28.3425 36.2144 30.9028" stroke="#4B4E53" stroke-opacity="0.6"></path>
<path d="M16.3446 27.299C1.18189 57.6279 7.91748 25.6495 34.2572 1C-12.4189 44.3865 -1.58493 26.3755 16.3446 27.299ZM16.3446 27.299C36.0943 -5.73932 38.0895 -7.73362 36.2144 22.889C35.7447 30.5591 36.2144 30.9028 36.2144 30.9028M16.3446 27.299C21.2198 21.1012 29.9469 39.8836 36.2144 30.9028M16.3446 27.299C-4.54175 14.4706 1.55352 9.83928 36.2144 30.9028M27.9439 8.65186C27.9404 71.5103 35.9774 28.3425 36.2144 30.9028" stroke="#329AFF" stroke-opacity="0.8"></path>
</svg><style>@media (prefers-color-scheme: light) { :root { filter: none; } }
@media (prefers-color-scheme: dark) { :root { filter: none; } }
</style></svg>